<svg width="161" height="55" viewBox="0 0 161 55" fill="none" xmlns="http://www.w3.org/2000/svg">
<path d="M53.7245 3.44933e-06C55.3081 3.58669e-06 56.2978 1.92983 55.506 3.47369L29.6739 53.8421C28.8821 55.386 26.9026 55.386 26.1108 53.8421L0.278672 3.47368C-0.513118 1.92982 0.476621 -1.37363e-07 2.0602 0L53.7245 3.44933e-06Z" fill="url(#paint0_linear_2_71)"/>
<path fill-rule="evenodd" clip-rule="evenodd" d="M43.4948 26.9584L55.5393 3.47369C56.3311 1.92983 55.3413 1.77114e-06 53.7577 1.63377e-06L29.287 0L43.4948 26.9584Z" fill="#191919"/>
<path d="M100.488 12.2678L87.0406 45.2405H81.4452L67.9976 12.2678H72.9714C73.5087 12.2678 73.9462 12.397 74.2839 12.6555C74.6216 12.9139 74.8749 13.2483 75.0438 13.6588L82.8958 33.7707C83.1568 34.4244 83.4024 35.1465 83.6327 35.937C83.8783 36.7123 84.1086 37.5256 84.3235 38.3769C84.5077 37.5256 84.7073 36.7123 84.9222 35.937C85.1371 35.1465 85.375 34.4244 85.636 33.7707L93.442 13.6588C93.5648 13.3092 93.8028 12.9899 94.1559 12.7011C94.5243 12.4122 94.9695 12.2678 95.4914 12.2678H100.488Z" fill="#191919"/>
<path d="M108.701 21.8449V45.2405H102.991V21.8449H108.701ZM109.484 15.027C109.484 15.5134 109.384 15.9695 109.185 16.3951C108.985 16.8208 108.716 17.1932 108.379 17.5124C108.056 17.8317 107.673 18.0901 107.227 18.2877C106.782 18.4702 106.306 18.5614 105.8 18.5614C105.309 18.5614 104.84 18.4702 104.395 18.2877C103.965 18.0901 103.589 17.8317 103.267 17.5124C102.944 17.1932 102.684 16.8208 102.484 16.3951C102.3 15.9695 102.208 15.5134 102.208 15.027C102.208 14.5253 102.3 14.054 102.484 13.6132C102.684 13.1723 102.944 12.7923 103.267 12.4731C103.589 12.1538 103.965 11.903 104.395 11.7206C104.84 11.5229 105.309 11.4241 105.8 11.4241C106.306 11.4241 106.782 11.5229 107.227 11.7206C107.673 11.903 108.056 12.1538 108.379 12.4731C108.716 12.7923 108.985 13.1723 109.185 13.6132C109.384 14.054 109.484 14.5253 109.484 15.027Z" fill="#191919"/>
<path d="M119.957 39.175C120.602 39.9503 121.3 40.4975 122.052 40.8168C122.82 41.136 123.649 41.2956 124.539 41.2956C125.399 41.2956 126.174 41.136 126.865 40.8168C127.556 40.4975 128.139 40.0111 128.615 39.3574C129.106 38.7037 129.482 37.8828 129.743 36.8947C130.004 35.8914 130.135 34.7132 130.135 33.3603C130.135 31.9921 130.019 30.8368 129.789 29.8943C129.574 28.9366 129.26 28.1613 128.845 27.5684C128.431 26.9755 127.924 26.5423 127.325 26.2687C126.742 25.995 126.074 25.8582 125.322 25.8582C124.14 25.8582 123.135 26.109 122.306 26.6107C121.477 27.0972 120.694 27.7888 119.957 28.6857V39.175ZM119.657 25.0373C120.625 23.958 121.722 23.0839 122.95 22.415C124.178 21.7461 125.621 21.4117 127.279 21.4117C128.569 21.4117 129.743 21.6777 130.802 22.2098C131.877 22.7419 132.798 23.5171 133.566 24.5357C134.348 25.539 134.947 26.7855 135.362 28.2753C135.791 29.7499 136.006 31.4449 136.006 33.3603C136.006 35.1085 135.768 36.7275 135.293 38.2173C134.817 39.707 134.134 40.9992 133.243 42.0937C132.368 43.1882 131.301 44.0471 130.042 44.6704C128.799 45.2785 127.402 45.5825 125.852 45.5825C124.531 45.5825 123.403 45.3849 122.467 44.9896C121.53 44.5792 120.694 44.0167 119.957 43.3022V52.8794H114.269V21.8449H117.746C118.483 21.8449 118.967 22.187 119.197 22.8711L119.657 25.0373Z" fill="#191919"/>
<path d="M161 21.8449L148.128 51.6708C147.959 52.0661 147.737 52.3625 147.46 52.5601C147.199 52.7729 146.793 52.8794 146.24 52.8794H142.003L146.424 43.4847L136.868 21.8449H141.865C142.31 21.8449 142.655 21.9514 142.901 22.1642C143.162 22.377 143.354 22.6202 143.477 22.8939L148.497 35.0249C148.665 35.4353 148.804 35.8458 148.911 36.2562C149.034 36.6667 149.149 37.0847 149.256 37.5104C149.395 37.0847 149.533 36.6667 149.671 36.2562C149.809 35.8306 149.963 35.4125 150.131 35.0021L154.875 22.8939C154.998 22.5898 155.197 22.339 155.474 22.1414C155.765 21.9438 156.088 21.8449 156.441 21.8449H161Z" fill="#191919"/>
<defs>
<linearGradient id="paint0_linear_2_71" x1="27.8923" y1="0" x2="27.8923" y2="55" gradientUnits="userSpaceOnUse">
<stop stop-color="#449AFF"/>
<stop offset="1" stop-color="#07D4D4"/>
</linearGradient>
</defs>
</svg>
